<?xml version="1.0" encoding="iso-8859-1"?>
<!-- Generator: Adobe Illustrator 19.0.0, SVG Export Plug-In . SVG Version: 6.00 Build 0)  -->
<svg version="1.1" id="Capa_1" xmlns="http://www.w3.org/2000/svg" xmlns:xlink="http://www.w3.org/1999/xlink" x="0px" y="0px"
	 viewBox="0 0 297 297" style="enable-background:new 0 0 297 297;" xml:space="preserve">
<g>
	<path d="M148.417,202.749c29.914,0,54.251-24.337,54.251-54.251s-24.337-54.251-54.251-54.251s-54.251,24.337-54.251,54.251
		S118.503,202.749,148.417,202.749z M148.417,124.915c13.004,0,23.583,10.579,23.583,23.583c0,13.004-10.579,23.583-23.583,23.583
		c-13.004,0-23.583-10.579-23.583-23.583C124.834,135.494,135.413,124.915,148.417,124.915z"/>
	<path d="M296.109,144.955c-0.457-0.852-11.467-21.108-35.149-41.427c-21.848-18.743-59.092-41.087-112.459-41.087
		s-90.612,22.344-112.46,41.087c-23.683,20.318-34.693,40.574-35.15,41.427c-1.186,2.21-1.188,4.866-0.006,7.079
		c0.455,0.853,11.426,21.113,35.091,41.436c21.828,18.744,59.069,41.089,112.525,41.089c53.456,0,90.696-22.345,112.524-41.09
		c23.665-20.321,34.635-40.583,35.09-41.436C297.297,149.821,297.295,147.165,296.109,144.955z M148.417,79.247
		c38.185,0,69.251,31.065,69.251,69.251s-31.066,69.251-69.251,69.251c-38.186,0-69.251-31.066-69.251-69.251
		S110.231,79.247,148.417,79.247z"/>
</g>
<g>
</g>
<g>
</g>
<g>
</g>
<g>
</g>
<g>
</g>
<g>
</g>
<g>
</g>
<g>
</g>
<g>
</g>
<g>
</g>
<g>
</g>
<g>
</g>
<g>
</g>
<g>
</g>
<g>
</g>
</svg>
